<svg xmlns="http://www.w3.org/2000/svg" width="20" height="21" viewBox="0 0 20 21" fill="none">
  <path d="M9.16663 1.75H7.49996C3.33329 1.75 1.66663 3.5 1.66663 7.875V13.125C1.66663 17.5 3.33329 19.25 7.49996 19.25H12.5C16.6666 19.25 18.3333 17.5 18.3333 13.125V11.375" stroke="#109CF1" stroke-width="1.5" stroke-linecap="round" stroke-linejoin="round"/>
  <path d="M13.3667 2.6426L6.80002 9.5376C6.55002 9.8001 6.30002 10.3163 6.25002 10.6926L5.89169 13.3263C5.75835 14.2801 6.40002 14.9451 7.30835 14.8138L9.81669 14.4376C10.1667 14.3851 10.6584 14.1226 10.9167 13.8601L17.4834 6.9651C18.6167 5.7751 19.15 4.3926 17.4834 2.6426C15.8167 0.892599 14.5 1.4526 13.3667 2.6426Z" stroke="#109CF1" stroke-width="1.5" stroke-miterlimit="10" stroke-linecap="round" stroke-linejoin="round"/>
  <path d="M12.425 3.63135C12.9834 5.7226 14.5417 7.35885 16.5417 7.95385" stroke="#109CF1" stroke-width="1.5" stroke-miterlimit="10" stroke-linecap="round" stroke-linejoin="round"/>
</svg>
