<svg xmlns="http://www.w3.org/2000/svg" width="45" height="82" viewBox="0 0 45 82" fill="none">
  <path d="M22.75 25.6428C29.6141 25.6428 35.1786 20.1423 35.1786 13.3571C35.1786 6.57191 29.6141 1.07141 22.75 1.07141C15.8859 1.07141 10.3214 6.57191 10.3214 13.3571C10.3214 20.1423 15.8859 25.6428 22.75 25.6428Z" fill="white" stroke="white" stroke-linecap="round" stroke-linejoin="round"/>
  <path d="M44.5 47.1428C44.5 41.4407 42.2085 35.9721 38.1296 31.94C34.0507 27.908 28.5185 25.6428 22.75 25.6428C16.9815 25.6428 11.4493 27.908 7.37043 31.94C3.29151 35.9721 1 41.4407 1 47.1428V56.3571H10.3214L13.4286 80.9285H32.0714L35.1786 56.3571H44.5V47.1428Z" fill="white" stroke="white" stroke-linecap="round" stroke-linejoin="round"/>
</svg>
