<svg xmlns="http://www.w3.org/2000/svg" width="73" height="80" viewBox="0 0 73 80" fill="none">
  <path opacity="0.4"
        d="M49.2446 13.6667H23.7554C12.6838 13.6667 6.08334 20.8096 6.08334 32.7913V53.7592C6.08334 65.7738 12.6838 72.9167 23.7554 72.9167H49.2142C60.2858 72.9167 66.8863 65.7738 66.8863 53.7921V32.7913C66.9167 20.8096 60.3163 13.6667 49.2446 13.6667Z"
        fill="white"/>
  <path
    d="M64.7875 40.7571H54.2025C51.2217 40.7571 48.5754 42.5346 47.2371 45.4312L44.6821 50.8954C44.0738 52.2121 42.8571 53.035 41.5188 53.035H31.5421C30.5992 53.035 29.2608 52.8046 28.3788 50.8954L25.8238 45.4642C24.4854 42.6004 21.8088 40.79 18.8583 40.79H8.21251C7.02626 40.79 6.08334 41.8104 6.08334 43.0942V53.825C6.08334 65.7737 12.7142 72.9167 23.7858 72.9167H49.275C59.7079 72.9167 66.1258 66.7283 66.9167 55.7342V43.0612C66.9167 41.8104 65.9738 40.7571 64.7875 40.7571Z"
    fill="white"/>
  <path
    d="M44.1954 21.7971C43.3133 20.8425 41.8533 20.8425 40.9713 21.7971L38.7813 24.1671V7.08331C38.7813 5.73373 37.7471 4.61456 36.5 4.61456C35.2529 4.61456 34.2188 5.73373 34.2188 7.08331V24.1671L32.0288 21.7971C31.1467 20.8425 29.6867 20.8425 28.8046 21.7971C27.9225 22.7516 27.9225 24.3316 28.8046 25.2862L34.8879 31.8696C34.9183 31.9025 34.9488 31.9025 34.9488 31.9354C35.1313 32.1329 35.3746 32.2975 35.6179 32.4291C35.9221 32.5279 36.1958 32.5937 36.5 32.5937C36.8042 32.5937 37.0779 32.5279 37.3517 32.3962C37.6254 32.2646 37.8688 32.1 38.1121 31.8696L44.1954 25.2862C45.0775 24.3316 45.0775 22.7516 44.1954 21.7971Z"
    fill="white"/>
</svg>
