<svg xmlns="http://www.w3.org/2000/svg" width="87" height="86" viewBox="0 -0 87 86" fill="none">
  <path
    d="M43.5 7.16669C34.0025 7.16669 26.2812 14.7992 26.2812 24.1875C26.2812 33.3967 33.5675 40.85 43.065 41.1725C43.355 41.1367 43.645 41.1367 43.8625 41.1725C43.935 41.1725 43.9712 41.1725 44.0437 41.1725C44.08 41.1725 44.08 41.1725 44.1163 41.1725C53.3963 40.85 60.6825 33.3967 60.7188 24.1875C60.7188 14.7992 52.9975 7.16669 43.5 7.16669Z"
    fill="white"/>
  <path
    d="M61.915 50.7042C51.8012 44.0392 35.3075 44.0392 25.1212 50.7042C20.5175 53.75 17.98 57.8709 17.98 62.2784C17.98 66.6859 20.5175 70.7709 25.085 73.7809C30.16 77.1492 36.83 78.8334 43.5 78.8334C50.17 78.8334 56.84 77.1492 61.915 73.7809C66.4825 70.735 69.02 66.65 69.02 62.2067C68.9837 57.7992 66.4825 53.7142 61.915 50.7042Z"
    fill="white"/>
</svg>
