<svg xmlns="http://www.w3.org/2000/svg" width="87" height="86" viewBox="0 0 87 86" fill="none">
  <path
    d="M63.5463 27.8425C63.2925 27.8067 63.0388 27.8067 62.785 27.8425C57.1663 27.6634 52.7075 23.1125 52.7075 17.5225C52.7075 11.825 57.3838 7.16669 63.1838 7.16669C68.9475 7.16669 73.66 11.7892 73.66 17.5225C73.6238 23.1125 69.165 27.6634 63.5463 27.8425Z"
    fill="white"/>
  <path
    d="M75.3637 52.675C71.3037 55.3625 65.6125 56.3658 60.3562 55.685C61.7337 52.7466 62.4587 49.4858 62.495 46.0458C62.495 42.4625 61.6975 39.0583 60.175 36.0841C65.54 35.3675 71.2312 36.3708 75.3275 39.0583C81.055 42.785 81.055 48.9125 75.3637 52.675Z"
    fill="white"/>
  <path
    d="M23.345 27.8425C23.5988 27.8067 23.8525 27.8067 24.1063 27.8425C29.725 27.6634 34.1838 23.1125 34.1838 17.5225C34.1838 11.7892 29.5075 7.16669 23.7075 7.16669C17.9438 7.16669 13.2675 11.7892 13.2675 17.5225C13.2675 23.1125 17.7263 27.6634 23.345 27.8425Z"
    fill="white"/>
  <path
    d="M23.7437 46.0458C23.7437 49.5217 24.505 52.8183 25.8825 55.7925C20.7712 56.33 15.4425 55.255 11.5275 52.7108C5.8 48.9483 5.8 42.8208 11.5275 39.0583C15.4062 36.4783 20.88 35.4392 26.0275 36.0125C24.5412 39.0225 23.7437 42.4267 23.7437 46.0458Z"
    fill="white"/>
  <path
    d="M43.935 56.8675C43.645 56.8317 43.3188 56.8317 42.9925 56.8675C36.3225 56.6525 30.9938 51.2417 30.9938 44.5767C31.03 37.7683 36.5763 32.25 43.5 32.25C50.3875 32.25 55.97 37.7683 55.97 44.5767C55.9338 51.2417 50.6413 56.6525 43.935 56.8675Z"
    fill="white"/>
  <path
    d="M32.1538 64.285C26.68 67.9042 26.68 73.8525 32.1538 77.4359C38.3888 81.5567 48.6113 81.5567 54.8463 77.4359C60.32 73.8167 60.32 67.8684 54.8463 64.285C48.6475 60.1642 38.425 60.1642 32.1538 64.285Z"
    fill="white"/>
</svg>
