<svg xmlns="http://www.w3.org/2000/svg" width="20" height="20" viewBox="0 0 20 20" fill="none">
  <path d="M12.9402 16.584L12.9402 16.5839L12.4069 12.314C12.4069 12.314 12.4069 12.314 12.4069 12.3139C12.3615 11.9511 12.1852 11.6173 11.911 11.3753M12.9402 16.584L11.911 11.3753M12.9402 16.584C12.952 16.6778 12.9436 16.773 12.9157 16.8634C12.8878 16.9537 12.841 17.0371 12.7785 17.1079L13.4402 17.6923L12.7785 17.1079C12.7159 17.1788 12.6389 17.2355 12.5528 17.2744C12.4666 17.3133 12.3731 17.3334 12.2786 17.3333H12.2784L7.7217 17.3333L7.72098 17.3333C7.62641 17.3334 7.53291 17.3134 7.44669 17.2745C7.36047 17.2357 7.28349 17.1789 7.22088 17.1081C7.15827 17.0372 7.11145 16.9538 7.08354 16.8635C7.05564 16.7731 7.04726 16.6779 7.05896 16.5841C7.05897 16.5841 7.05897 16.584 7.05898 16.584L7.59313 12.3141L7.59314 12.314C7.63847 11.9513 7.81469 11.6176 8.08869 11.3756C8.36261 11.1337 8.71542 11.0002 9.08086 11C9.08096 11 9.08105 11 9.08114 11M12.9402 16.584L9.08114 11M11.911 11.3753C11.6368 11.1333 11.2836 10.9999 10.9179 11L10.9175 11L9.08114 11M11.911 11.3753L9.08114 11" fill="white" stroke="#C2CFE0" stroke-width="2" stroke-linecap="round" stroke-linejoin="round"/>
  <path d="M11.5 4.16669C11.5 4.99511 10.8284 5.66669 10 5.66669C9.17157 5.66669 8.5 4.99511 8.5 4.16669C8.5 3.33826 9.17157 2.66669 10 2.66669C10.8284 2.66669 11.5 3.33826 11.5 4.16669Z" fill="white" stroke="#C2CFE0" stroke-width="2"/>
  <path d="M4.00002 7.50004C4.00002 7.86823 3.70154 8.16671 3.33335 8.16671C2.96516 8.16671 2.66669 7.86823 2.66669 7.50004C2.66669 7.13185 2.96516 6.83337 3.33335 6.83337C3.70154 6.83337 4.00002 7.13185 4.00002 7.50004Z" fill="white" stroke="#C2CFE0" stroke-width="2"/>
  <path d="M17.3333 7.50004C17.3333 7.86823 17.0349 8.16671 16.6667 8.16671C16.2985 8.16671 16 7.86823 16 7.50004C16 7.13185 16.2985 6.83337 16.6667 6.83337C17.0349 6.83337 17.3333 7.13185 17.3333 7.50004Z" fill="white" stroke="#C2CFE0" stroke-width="2"/>
  <mask id="path-5-inside-1_17_469" fill="white">
    <path d="M3.33334 11.6667H3.07834C2.68381 11.6666 2.30206 11.8066 2.00099 12.0615C1.69993 12.3165 1.49908 12.67 1.43418 13.0592L1.15668 14.7259C1.11685 14.9646 1.12953 15.2092 1.19382 15.4426C1.25811 15.676 1.37247 15.8926 1.52895 16.0773C1.68543 16.262 1.88027 16.4104 2.09992 16.5122C2.31957 16.614 2.55876 16.6667 2.80084 16.6667H5.83334L3.33334 11.6667ZM16.6667 11.6667H16.9217C17.3162 11.6666 17.698 11.8066 17.999 12.0615C18.3001 12.3165 18.5009 12.67 18.5658 13.0592L18.8433 14.7259C18.8832 14.9646 18.8705 15.2092 18.8062 15.4426C18.7419 15.676 18.6275 15.8926 18.4711 16.0773C18.3146 16.262 18.1197 16.4104 17.9001 16.5122C17.6804 16.614 17.4413 16.6667 17.1992 16.6667H14.1667"/>
  </mask>
  <path d="M3.33334 11.6667H3.07834C2.68381 11.6666 2.30206 11.8066 2.00099 12.0615C1.69993 12.3165 1.49908 12.67 1.43418 13.0592L1.15668 14.7259C1.11685 14.9646 1.12953 15.2092 1.19382 15.4426C1.25811 15.676 1.37247 15.8926 1.52895 16.0773C1.68543 16.262 1.88027 16.4104 2.09992 16.5122C2.31957 16.614 2.55876 16.6667 2.80084 16.6667H5.83334L3.33334 11.6667ZM16.6667 11.6667H16.9217C17.3162 11.6666 17.698 11.8066 17.999 12.0615C18.3001 12.3165 18.5009 12.67 18.5658 13.0592L18.8433 14.7259C18.8832 14.9646 18.8705 15.2092 18.8062 15.4426C18.7419 15.676 18.6275 15.8926 18.4711 16.0773C18.3146 16.262 18.1197 16.4104 17.9001 16.5122C17.6804 16.614 17.4413 16.6667 17.1992 16.6667H14.1667" fill="white"/>
  <path d="M3.33334 11.6667L5.1222 10.7723C4.78341 10.0947 4.09089 9.66669 3.33334 9.66669V11.6667ZM3.07834 11.6667L3.0781 13.6667H3.07834V11.6667ZM1.43418 13.0592L-0.538577 12.7302L-0.538664 12.7307L1.43418 13.0592ZM1.15668 14.7259L3.12943 15.0549L3.12952 15.0543L1.15668 14.7259ZM2.80084 16.6667V14.6667L2.8006 14.6667L2.80084 16.6667ZM5.83334 16.6667V18.6667C6.5265 18.6667 7.17023 18.3078 7.53465 17.7181C7.89906 17.1285 7.93219 16.3922 7.6222 15.7723L5.83334 16.6667ZM16.6667 9.66669C15.5621 9.66669 14.6667 10.5621 14.6667 11.6667C14.6667 12.7713 15.5621 13.6667 16.6667 13.6667V9.66669ZM16.9217 11.6667V13.6667H16.9219L16.9217 11.6667ZM18.5658 13.0592L20.5387 12.7307L20.5386 12.7302L18.5658 13.0592ZM18.8433 14.7259L16.8705 15.0543L16.8706 15.0549L18.8433 14.7259ZM17.1992 16.6667L17.1994 14.6667H17.1992V16.6667ZM14.1667 14.6667C13.0621 14.6667 12.1667 15.5621 12.1667 16.6667C12.1667 17.7713 13.0621 18.6667 14.1667 18.6667V14.6667ZM3.33334 9.66669H3.07834V13.6667H3.33334V9.66669ZM3.07859 9.66669C2.21062 9.66658 1.37076 9.97439 0.708413 10.5353L3.29357 13.5877C3.23335 13.6387 3.157 13.6667 3.0781 13.6667L3.07859 9.66669ZM0.708413 10.5353C0.0460709 11.0963 -0.395796 11.874 -0.538577 12.7302L3.40693 13.3882C3.39395 13.466 3.35378 13.5367 3.29357 13.5877L0.708413 10.5353ZM-0.538664 12.7307L-0.816164 14.3974L3.12952 15.0543L3.40702 13.3877L-0.538664 12.7307ZM-0.816077 14.3969C-0.903688 14.9222 -0.875805 15.4603 -0.734367 15.9738L3.122 14.9115C3.13486 14.9582 3.1374 15.0071 3.12943 15.0549L-0.816077 14.3969ZM-0.734367 15.9738C-0.592929 16.4872 -0.341331 16.9637 0.00292313 17.3701L3.05498 14.7846C3.08627 14.8215 3.10914 14.8648 3.122 14.9115L-0.734367 15.9738ZM0.00292313 17.3701C0.347178 17.7765 0.775828 18.103 1.25906 18.3269L2.94078 14.6976C2.98471 14.7179 3.02368 14.7476 3.05498 14.7846L0.00292313 17.3701ZM1.25906 18.3269C1.74229 18.5508 2.2685 18.6668 2.80109 18.6667L2.8006 14.6667C2.84901 14.6667 2.89685 14.6772 2.94078 14.6976L1.25906 18.3269ZM2.80084 18.6667H5.83334V14.6667H2.80084V18.6667ZM7.6222 15.7723L5.1222 10.7723L1.54449 12.5611L4.04449 17.5611L7.6222 15.7723ZM16.6667 13.6667H16.9217V9.66669H16.6667V13.6667ZM16.9219 13.6667C16.843 13.6667 16.7667 13.6387 16.7065 13.5877L19.2916 10.5353C18.6293 9.97439 17.7894 9.66658 16.9214 9.66669L16.9219 13.6667ZM16.7065 13.5877C16.6462 13.5367 16.6061 13.466 16.5931 13.3882L20.5386 12.7302C20.3958 11.874 19.9539 11.0963 19.2916 10.5353L16.7065 13.5877ZM16.593 13.3877L16.8705 15.0543L20.8162 14.3974L20.5387 12.7307L16.593 13.3877ZM16.8706 15.0549C16.8626 15.0071 16.8652 14.9582 16.878 14.9115L20.7344 15.9738C20.8758 15.4603 20.9037 14.9222 20.8161 14.3969L16.8706 15.0549ZM16.878 14.9115C16.8909 14.8648 16.9137 14.8215 16.945 14.7846L19.9971 17.3701C20.3413 16.9637 20.5929 16.4872 20.7344 15.9738L16.878 14.9115ZM16.945 14.7846C16.9763 14.7476 17.0153 14.7179 17.0592 14.6976L18.741 18.3269C19.2242 18.103 19.6528 17.7765 19.9971 17.3701L16.945 14.7846ZM17.0592 14.6976C17.1032 14.6772 17.151 14.6667 17.1994 14.6667L17.1989 18.6667C17.7315 18.6668 18.2577 18.5508 18.741 18.3269L17.0592 14.6976ZM17.1992 14.6667H14.1667V18.6667H17.1992V14.6667Z" fill="#C2CFE0" mask="url(#path-5-inside-1_17_469)"/>
</svg>
